<?xml version="1.0" encoding="utf-8"?>
<!-- Generator: Adobe Illustrator 28.1.0, SVG Export Plug-In . SVG Version: 6.00 Build 0)  -->
<svg version="1.1" id="Layer_1" xmlns="http://www.w3.org/2000/svg" xmlns:xlink="http://www.w3.org/1999/xlink" x="0px" y="0px"
	 viewBox="0 0 250 63" style="enable-background:new 0 0 250 63;" xml:space="preserve">
<style type="text/css">
	.st0{fill:#FFFFFF;}
</style>
<g id="Artwork_28_00000047749071775995919470000014663445256450102426_">
	<g>
		<g>
			<path class="st0" d="M17.8,10.3c3.2,1.2,6.3,1.5,9.1,1.5c4.6,0,8.1-1.1,9.2-1.4V8.5l-0.3,0.1c-0.1,0-8.5,3.4-17.3,0.2
				C9.8,5.8,1.7,7.9,0,8.5v1.9l0.3-0.1C0.4,10.2,8.9,7.1,17.8,10.3"/>
			<path class="st0" d="M10.6,44c0.1,0.2,0.1,0.4,0.1,0.5C10.7,44.4,10.6,44.2,10.6,44l-1.7-0.1c-0.1-0.3-0.3-0.6-0.4-0.9
				c0.2,0.3,0.3,0.6,0.4,0.9L10.6,44z"/>
			<path class="st0" d="M6.5,40.7c-0.3-0.2-0.5-0.4-0.8-0.6C6,40.3,6.3,40.5,6.5,40.7"/>
		</g>
		<path class="st0" d="M10.7,48.8l-1.4-0.9L10.7,48.8z"/>
		<path class="st0" d="M12.3,32.5l-3.1,3.4L12.3,32.5z"/>
		<path class="st0" d="M11.3,31.2l-4,2.8L11.3,31.2z"/>
		<g>
			<path class="st0" d="M20.3,50.2c0,0,0.1,0.1,0.1,0.1C20.3,50.3,20.3,50.3,20.3,50.2"/>
			<path class="st0" d="M5.9,38.4L5.9,38.4c-0.7-0.3-1.4-0.6-2.1-0.8l-0.9,1.4l0.9-1.4C4.5,37.9,5.2,38.1,5.9,38.4"/>
		</g>
		<path class="st0" d="M10.6,29.8l-5,2L10.6,29.8z"/>
		<g>
			<path class="st0" d="M33.8,39c-0.1,0-0.2,0-0.4,0c-0.1,0-0.2,0-0.3,0c0.1,0,0.2,0,0.3,0C33.5,39,33.6,39,33.8,39"/>
			<path class="st0" d="M15.7,50.4c0-0.1,0-0.1,0.1-0.1C15.7,50.3,15.7,50.3,15.7,50.4"/>
			<path class="st0" d="M7.7,48c0.1-0.4,0.1-0.7,0.1-1.1c0-0.1,0-0.2,0-0.3c0,0.1,0,0.2,0,0.3C7.8,47.3,7.8,47.6,7.7,48"/>
			<path class="st0" d="M2.9,39.1c-0.1,0-0.2,0-0.3,0c-0.1,0-0.2,0-0.4,0c0.1,0,0.2,0,0.4,0C2.7,39,2.8,39.1,2.9,39.1"/>
			<path class="st0" d="M2.1,16.7L2.1,16.7c0.1-0.8,0.1-1.5,0.3-2.3C2.3,15.2,2.2,15.9,2.1,16.7"/>
		</g>
		<path class="st0" d="M28.7,33.9l-4-2.8L28.7,33.9z"/>
		<g>
			<path class="st0" d="M10.5,26.4c0,0.1-0.1,0.3-0.1,0.4C10.5,26.6,10.5,26.5,10.5,26.4"/>
		</g>
		<path class="st0" d="M26.8,35.9l-3.1-3.4L26.8,35.9z"/>
		<g>
			<path class="st0" d="M33.9,16.7c-0.1-0.8-0.1-1.5-0.3-2.3C33.7,15.2,33.8,15.9,33.9,16.7"/>
			<path class="st0" d="M23.1,31.1c0,0.7-0.1,1.4-0.2,2.1C23,32.5,23.1,31.8,23.1,31.1"/>
			<path class="st0" d="M25.6,26.7c0-0.1-0.1-0.3-0.1-0.4C25.5,26.5,25.5,26.6,25.6,26.7"/>
		</g>
		<polygon class="st0" points="30.3,31.7 30.3,31.7 25.4,29.8 		"/>
		<g>
			<path class="st0" d="M12.7,22.9L2.5,13.7c0,0.2-0.1,0.5-0.1,0.7c0-0.2,0.1-0.5,0.1-0.7L12.7,22.9z"/>
			<path class="st0" d="M11.8,23.8c-0.1,0.1-0.1,0.2-0.2,0.3l-9.6-5.3l9.6,5.3C11.7,24,11.8,23.9,11.8,23.8"/>
			<path class="st0" d="M33.1,39.1l-0.9-1.4c-0.7,0.2-1.4,0.4-2.1,0.8c0.7-0.3,1.4-0.6,2.1-0.8L33.1,39.1z"/>
			<path class="st0" d="M33.9,18.7l-9.6,5.3c-0.1-0.1-0.1-0.2-0.2-0.3c0.1,0.1,0.1,0.2,0.2,0.3L33.9,18.7z"/>
			<path class="st0" d="M33.6,14.4c0-0.2-0.1-0.5-0.1-0.7l-10.1,9.2l10.1-9.2C33.5,13.9,33.5,14.2,33.6,14.4"/>
		</g>
		<polygon class="st0" points="15,24 14.9,23.8 11.5,18.6 14.9,23.8 		"/>
		<g>
			<path class="st0" d="M30.3,40.1c-0.3,0.2-0.6,0.4-0.8,0.6C29.7,40.5,30,40.3,30.3,40.1z"/>
			<path class="st0" d="M28.2,46.6c0,0.1,0,0.2,0,0.3c0,0.4,0.1,0.7,0.1,1.1c-0.1-0.4-0.1-0.7-0.1-1.1
				C28.2,46.8,28.2,46.7,28.2,46.6"/>
		</g>
		<path class="st0" d="M26.7,47.9l-1.4,0.9L26.7,47.9z"/>
		<g>
			<path class="st0" d="M27.1,43.9c0.1-0.3,0.3-0.6,0.4-0.9C27.4,43.3,27.2,43.6,27.1,43.9L25.4,44c-0.1,0.2-0.1,0.4-0.1,0.5
				c0-0.2,0.1-0.4,0.1-0.5L27.1,43.9z"/>
			<path class="st0" d="M18.3,17.7c0.3-0.1,0.5-0.4,0.5-0.7c-0.2-0.2-0.5-0.2-0.8,0c-0.3,0.1-0.5,0.4-0.5,0.7
				C17.7,17.8,18,17.8,18.3,17.7"/>
			<path class="st0" d="M22.5,46c-0.4,0.9-1.3,1.7-2.2,2.2c-0.1,0.1-0.3,0.1-0.4,0.1H16c-0.1,0-0.2,0-0.3-0.1
				c-0.9-0.5-1.8-1.3-2.2-2.2c-0.1-0.2,0.1-0.4,0.3-0.4h8.5C22.5,45.6,22.6,45.8,22.5,46 M15.5,32.5c0.4-0.7,0.8-1.3,1.1-2
				c1.1-2.7,0.4-6.9-1.9-11.2c-0.2,0-0.9,0.3-1.4-0.7c0,0,0,0,0-0.1c0,0,0,0,0,0h0c0,0,1.5,0,2.8-1.4c1-1,2-1,2.8-0.9
				c0.4,0,0.7,0,1,0c0.1,0,0.3-0.1,0.4-0.1c0.9-0.2,1.7-0.4,2.2,0.7c0,0,0,0,0,0.1c0,0,0,0-0.1,0c0,0-0.1,0-0.1,0
				c-1.8,0-3.8,2.2-4.1,4.7c-0.2,1.3,0.2,2.1,0.4,2.7c1,2.2,1.3,4.3,0.9,6c-0.4,1.9-1.6,3.1-2.7,4.2c-1.2,1.3-2.5,2.6-2.5,4.6
				c0,0.3,0,0.6,0.1,0.8c0,0.3,0,0.3,0,0.3c0,0,0,0,0,0c0,0,0,0,0,0c-0.1-0.1-0.5-1.6-0.6-2.5C13.7,35.6,14.6,34,15.5,32.5
				 M14.7,41.3C14.7,41.3,14.8,41.3,14.7,41.3c0.1-0.1,0.1-0.1,0.1,0c0.4,1,1.5,2.4,2.5,3.4c0,0,0,0.1,0,0.1h-3c0,0,0,0,0,0
				C15.3,43,14.7,41.4,14.7,41.3 M20.2,40.6c0.1,0.6,0.3,1,0.5,1.5c0.3,0.6,0.7,1.3,0.7,2.6h-2.7c-0.1-0.3-0.2-0.7-0.2-1
				c-0.1-0.8-0.4-2.3,0.1-4c0.4-1.3,1-1.9,1.7-2.7c0.2-0.2,0.3-0.3,0.5-0.5c0,0,0.1,0,0.1,0c0,0,0,0.1,0,0.1
				C20.2,38.1,20,39.5,20.2,40.6 M21.2,34.6c-0.4,0.8-0.9,1.4-1.5,1.9c-0.7,0.8-1.4,1.5-1.9,3c-0.4,1.3-0.4,2.8-0.1,4.3
				c0,0,0,0.1,0,0.1c0,0,0,0,0,0c0,0,0,0,0,0c-1.7-1.7-2.5-3.3-2.4-4.9c0.1-1.7,1.2-2.9,2.3-4.1c1.2-1.2,2.4-2.5,2.9-4.6
				c0.5-2,0.2-4.2-0.9-6.6c0,0,0-0.1,0-0.1c0,0,0.1,0,0.1,0C19.7,23.8,23.7,29.8,21.2,34.6 M31.3,13.1l-8.3,9.7
				c0.1,0.1,0.2,0.1,0.3,0.2l10.1-9.2c0,0.2,0.1,0.5,0.1,0.7c0.1,0.7,0.2,1.5,0.3,2.3l-9.7,7.1c0.1,0.1,0.1,0.2,0.2,0.3l9.6-5.3
				c0,0.1,0,0.2,0,0.3c0,0.7-0.1,1.5-0.1,2.2L25,25c0.1,0.1,0.1,0.2,0.2,0.3l8.5-2.5c-0.1,0.7-0.2,1.4-0.4,2l-7.7,1.5
				c0,0.1,0.1,0.3,0.1,0.4l7.2-0.4c-0.1,0.3-0.2,0.6-0.3,0.9c-0.1,0.3-0.2,0.6-0.3,0.8l-6.5-0.2c0,0,0,0.1,0,0.1c0,0.1,0,0.2,0,0.3
				l6,1c-0.2,0.5-0.5,1-0.7,1.5l-5.5-1.3c0,0.1-0.1,0.3-0.1,0.4l5,2c-0.1,0.2-0.3,0.4-0.4,0.7c-0.1,0.2-0.3,0.4-0.5,0.6L25,30.8
				c-0.1,0.1-0.1,0.3-0.2,0.4l4,2.8c-0.3,0.4-0.7,0.8-1.1,1.2l-3.6-3c-0.1,0.1-0.2,0.2-0.3,0.3l3.1,3.4c-0.4,0.4-0.8,0.7-1.3,1
				l-2.7-3.7c0.2-0.7,0.2-1.4,0.2-2.1c0-0.7-0.1-1.4-0.2-2c-0.1-0.4-0.2-0.9-0.3-1.3c-0.1-0.2-0.1-0.4-0.2-0.6
				c-0.2-0.6-0.4-1.1-0.6-1.6c-0.3-0.7-0.6-1.2-0.8-1.7l0.1-0.1l6.8-10.4C25,13.5,21.6,13.2,18,12c-4.3-1.6-8.5-1.7-11.8-1.3l5.2,8
				l3.4,5.2L15,24c1.4,2.1,1.3,4.7-0.1,6.7L14.7,31c0,0,0,0,0,0l-4.2,5.9c-0.4-0.3-0.9-0.6-1.3-1l3.1-3.4c-0.1-0.1-0.2-0.2-0.3-0.3
				l-3.6,3c-0.4-0.4-0.7-0.8-1.1-1.2l4-2.8c-0.1-0.1-0.2-0.3-0.2-0.4L6.5,33c-0.2-0.2-0.3-0.4-0.5-0.6c-0.1-0.2-0.3-0.4-0.4-0.7l5-2
				c0-0.1-0.1-0.3-0.1-0.4L5,30.7c-0.3-0.5-0.5-1-0.7-1.5l6-1c0-0.1,0-0.2,0-0.3c0,0,0-0.1,0-0.1L3.8,28c-0.1-0.3-0.2-0.6-0.3-0.8
				c-0.1-0.3-0.2-0.6-0.3-0.9l7.2,0.4c0-0.1,0.1-0.3,0.1-0.4l-7.7-1.5c-0.2-0.7-0.3-1.3-0.4-2l8.5,2.5c0-0.1,0.1-0.2,0.2-0.3
				l-8.8-3.8c-0.1-0.7-0.1-1.4-0.1-2.2c0-0.1,0-0.2,0-0.3l9.6,5.3c0.1-0.1,0.1-0.2,0.2-0.3l-9.7-7.1c0.1-0.8,0.1-1.5,0.3-2.3
				c0-0.2,0.1-0.5,0.1-0.7l10.1,9.2c0.1-0.1,0.2-0.1,0.3-0.2L3,11.1c-1.9,0.4-3,0.8-3,0.8V37c0,0.2,0,0.4,0,0.6
				c0.4-0.1,0.8-0.1,1.2-0.1L1.9,39c0.1,0,0.2,0,0.4,0c0.1,0,0.2,0,0.4,0c0.1,0,0.2,0,0.3,0l0.9-1.4c0.7,0.2,1.4,0.4,2.1,0.8
				l-0.2,1.7c0.3,0.2,0.6,0.4,0.8,0.6L8,39.9c0.5,0.5,1,1.1,1.4,1.7l-1,1.4c0.2,0.3,0.3,0.6,0.4,0.9l1.7,0.1
				c0.1,0.2,0.1,0.4,0.1,0.5c0.1,0.5,0.2,1.1,0.2,1.7l-1.5,0.7c0,0.1,0,0.2,0,0.4c0,0.1,0,0.2,0,0.4c0,0.1,0,0.2,0,0.3l1.4,0.9
				c-0.1,0.4-0.2,0.7-0.3,1.1c1.7,0.8,3.7,1.6,6,2.3v0l-0.1-1.1h-0.2c-0.1,0-0.3-0.1-0.4-0.2c0-0.1-0.1-0.1-0.1-0.2l0-0.2
				c0-0.1,0-0.1,0-0.2c0-0.1,0-0.1,0.1-0.1c0.1-0.1,0.2-0.1,0.3-0.1h0.1l-0.1-1c0-0.1,0-0.1,0.1-0.1h3.7c0.1,0,0.1,0,0.1,0.1l-0.1,1
				H20c0.1,0,0.2,0,0.3,0.1c0,0,0.1,0.1,0.1,0.1c0,0.1,0,0.1,0,0.2l0,0.2c0,0.1,0,0.2-0.1,0.2c-0.1,0.1-0.2,0.2-0.3,0.2h-0.2
				l-0.1,1.1l0,0c2.3-0.7,4.3-1.5,6-2.3c-0.1-0.4-0.2-0.7-0.3-1.1l1.4-0.9c0-0.1,0-0.2,0-0.3c0-0.1,0-0.2,0-0.4c0-0.1,0-0.2,0-0.4
				l-1.5-0.7c0-0.6,0.1-1.1,0.2-1.7c0-0.2,0.1-0.4,0.1-0.5l1.7-0.1c0.1-0.3,0.3-0.6,0.4-0.9l-1-1.4c0.4-0.6,0.9-1.2,1.4-1.7l1.5,0.7
				c0.3-0.2,0.5-0.4,0.8-0.6l-0.2-1.7c0.7-0.3,1.4-0.6,2.1-0.8l0.9,1.4c0.1,0,0.2,0,0.3,0c0.1,0,0.2,0,0.4,0c0.1,0,0.2,0,0.4,0
				l0.7-1.5c0.2,0,0.4,0,0.6,0.1c0.2,0,0.4,0.1,0.6,0.1c0-0.2,0-0.4,0-0.6V11.9C36,11.9,34.2,12.6,31.3,13.1"/>
			<path class="st0" d="M30.3,42.1c-0.3,0.3-0.6,0.5-0.8,0.9c-0.1,0.2-0.2,0.3-0.3,0.5c-0.1,0.1-0.1,0.2-0.2,0.3
				c-0.1,0.2-0.2,0.3-0.3,0.5c0,0.1-0.1,0.2-0.1,0.3c-0.1,0.2-0.1,0.4-0.2,0.6c-0.1,0.3-0.1,0.6-0.2,0.9c0,0.2,0,0.4,0,0.6
				c0,0.1,0,0.2,0,0.3c0,0.4,0.1,0.7,0.1,1.1c0,0.1,0.1,0.2,0.1,0.4c4.1-2.6,6-5.4,6.9-7.7c-0.4-0.1-0.8-0.1-1.2-0.1
				C32.6,40.6,31.3,41.2,30.3,42.1"/>
			<path class="st0" d="M7.8,46.9c0-0.1,0-0.2,0-0.3c0-0.2,0-0.4,0-0.6c0-0.3-0.1-0.6-0.2-0.9c-0.1-0.2-0.1-0.4-0.2-0.6
				c0-0.1-0.1-0.2-0.1-0.3C7.2,44,7.1,43.9,7,43.7c0-0.1-0.1-0.2-0.2-0.3c-0.1-0.2-0.2-0.3-0.3-0.5c-0.2-0.3-0.5-0.6-0.8-0.9
				c-1-0.9-2.4-1.5-3.9-1.5c-0.4,0-0.8,0-1.2,0.1c0.9,2.3,2.8,5.1,6.9,7.7c0-0.1,0.1-0.2,0.1-0.4C7.8,47.6,7.8,47.3,7.8,46.9"/>
			<path class="st0" d="M124.4,31.4c-0.8,0-1.6-0.5-1.6-1.3c0-0.7,0.5-1.1,1.1-1.1c0.9,0,0.9,1,1.4,1c0.5,0,0.9-0.5,1.6-2.2
				l-3.4-7.8c-0.2-0.4-0.3-0.4-1-0.4v-0.8h4.7v0.8c-0.9,0-1.1,0-1.1,0.3c0,0.1,0,0.2,0.1,0.4l1.9,4.8h0.1l2-4.8
				c0.1-0.1,0.1-0.3,0.1-0.4c0-0.2-0.2-0.2-1.1-0.3v-0.8h3.3v0.8c-0.8,0-0.8,0-1,0.4l-3.5,8C127.2,29.8,126.1,31.4,124.4,31.4"/>
			<path class="st0" d="M54.9,16.1v-0.9h4.6v0.9c-1.5,0-1.7,0.1-1.7,0.5v6.5c0,3-2.2,4.7-4.8,4.7c-3.1,0-5.1-1.7-5.1-4.6v-6.6
				c0-0.4-0.2-0.5-1.6-0.5v-0.9H52v0.9c-1.4,0-1.6,0.1-1.6,0.5V23c0,2.5,1.1,3.6,3.1,3.6c1.9,0,3.1-1.3,3.1-3.6v-6.3
				C56.6,16.2,56.4,16.1,54.9,16.1"/>
			<path class="st0" d="M63.9,27.7h-4.5v-0.8c1,0,1.1,0,1.1-0.4V21c0-0.4-0.1-0.5-0.4-0.7l-0.7-0.4v-0.5l3.1-0.9h0.4v1.7
				c0.6-0.8,1.7-1.7,3.1-1.7c1.8,0,2.6,1.4,2.6,3v4.9c0,0.3,0.1,0.4,1.1,0.4v0.8h-4.5v-0.8c1,0,1.1,0,1.1-0.4V22
				c0-1.2-0.5-1.9-1.5-1.9c-0.7,0-1.4,0.4-1.9,0.9v5.5c0,0.3,0.1,0.4,1.1,0.4V27.7z"/>
			<path class="st0" d="M72.9,14c0.8,0,1.5,0.6,1.5,1.5c0,0.8-0.6,1.5-1.5,1.5c-0.8,0-1.5-0.6-1.5-1.5C71.4,14.7,72,14,72.9,14
				 M71.3,20.3l-0.7-0.4v-0.5l3.1-0.9H74v7.9c0,0.3,0.1,0.4,1.1,0.4v0.8h-4.5v-0.8c1,0,1.1,0,1.1-0.4V21
				C71.7,20.6,71.6,20.5,71.3,20.3"/>
			<path class="st0" d="M85.2,18.7v0.8c-0.8,0-0.8,0-1,0.4l-3.3,7.8h-1.3L76.3,20c-0.2-0.4-0.3-0.4-1-0.4v-0.8H80v0.8
				c-0.9,0-1.1,0-1.1,0.3c0,0.1,0,0.2,0.1,0.4l1.9,5h0.1l2-5c0.1-0.1,0.1-0.3,0.1-0.4c0-0.2-0.2-0.2-1.1-0.3v-0.8H85.2z"/>
			<path class="st0" d="M87.4,22.2h3.6c0-1.4-0.4-2.6-1.6-2.6C88.3,19.6,87.5,20.5,87.4,22.2 M89.4,27.8c-2.3,0-4.4-1.7-4.4-4.5
				c0-2.7,2-4.8,4.5-4.8c2.5,0,3.7,1.8,3.7,4.1v0.5h-5.9c0.1,2.1,1.2,3.3,2.7,3.3c1,0,1.7-0.4,2.3-1.4l0.8,0.6
				C92.5,27,91.1,27.8,89.4,27.8"/>
			<path class="st0" d="M99.2,27.7h-5.1v-0.8c1,0,1.1,0,1.1-0.4V21c0-0.4-0.1-0.5-0.4-0.7l-0.7-0.4v-0.5l3.1-0.9h0.4V21
				c0.6-1,1.7-2.5,2.8-2.5c0.9,0,1.4,0.6,1.4,1.4c0,0.8-0.6,1.3-1.2,1.3c-0.7,0-0.9-0.7-1.4-0.7c-0.5,0-1.2,0.8-1.7,1.4v4.5
				c0,0.4,0.2,0.4,1.6,0.4V27.7z"/>
			<path class="st0" d="M104.6,20.7c0,1.9,4.9,0.7,4.9,4.1c0,1.8-1.8,3-3.9,3c-1.3,0-2.3-0.4-3.2-0.8l-0.2-2.4h0.8
				c0.5,1.7,1.4,2.2,2.7,2.2c0.9,0,1.7-0.5,1.7-1.3c0-2.1-4.9-0.8-4.9-4.1c0-1.6,1.5-2.9,3.6-2.9c1.1,0,1.9,0.3,2.7,0.7v2.2h-0.8
				c-0.3-1.2-0.9-1.9-2.1-1.9C105.2,19.5,104.6,20,104.6,20.7"/>
			<path class="st0" d="M112.9,14c0.8,0,1.5,0.6,1.5,1.5c0,0.8-0.6,1.5-1.5,1.5c-0.8,0-1.5-0.6-1.5-1.5
				C111.4,14.7,112.1,14,112.9,14 M111.3,20.3l-0.7-0.4v-0.5l3.1-0.9h0.4v7.9c0,0.3,0.1,0.4,1.1,0.4v0.8h-4.5v-0.8
				c1,0,1.1,0,1.1-0.4V21C111.7,20.6,111.6,20.5,111.3,20.3"/>
			<path class="st0" d="M139,19.6c-1.3,0-2,1.3-2,3.6c0,2.3,0.7,3.6,2,3.6c1.3,0,2-1.3,2-3.6C141,20.9,140.3,19.6,139,19.6
				 M139,18.5c2.5,0,4.5,1.9,4.5,4.7c0,2.7-2,4.7-4.5,4.7c-2.5,0-4.5-1.9-4.5-4.7C134.5,20.4,136.5,18.5,139,18.5"/>
			<path class="st0" d="M149.3,27.7h-5.1v-0.8c1,0,1.1,0,1.1-0.4v-6.7H144v-1h1.3v-0.5c0-2.5,2-4.6,4.6-4.6c1.2,0,2,0.5,2,1.3
				c0,0.7-0.6,1-1.1,1c-1,0-1.2-1.2-1.9-1.2c-0.7,0-1.4,0.7-1.4,2.1v1.9h2.1v1h-2.1v6.7c0,0.4,0.2,0.4,1.6,0.4V27.7z"/>
			<path class="st0" d="M119.3,27.8c-1.5,0-2.6-0.9-2.6-2.3v-6h-1.2v-0.8h1.2v-2.3l2.3-0.7v3h2.6v0.8h-2.6v5.6
				c0,0.9,0.5,1.3,1.2,1.3c0.6,0,1.1-0.3,1.6-0.9l0.6,0.7C121.7,27.3,120.7,27.8,119.3,27.8"/>
			<path class="st0" d="M57.2,38h-0.8c-0.7-2.3-0.9-3.2-2.6-3.2H51v4.6h1c1.7,0,1.7-0.1,1.9-1.9h0.8v4.8H54c-0.2-1.8-0.4-1.9-2-1.9
				h-1v4.9h2.5c2.1,0,2.8-0.5,3.6-3.5H58l-0.4,4.5H46.9v-0.9c1.4,0,1.6-0.1,1.6-0.5v-9.6c0-0.4-0.2-0.5-1.6-0.5v-0.9h10.2L57.2,38z"
				/>
			<path class="st0" d="M61.3,43.8c0,0.8,0.5,1.2,1.2,1.2c0.6,0,1.1-0.3,1.6-0.7v-2.7C62.5,42,61.3,42.6,61.3,43.8 M64.3,45
				c-0.9,0.9-1.9,1.4-3,1.4c-1.3,0-2.2-0.8-2.2-2c0-1.7,1.7-2.7,5.1-3.7v-1c0-1-0.5-1.6-1.4-1.6c-0.7,0-1.3,0.3-1.3,0.8
				c0,0.2,0.1,0.4,0.1,0.7c0,0.6-0.4,1.1-1.1,1.1c-0.6,0-1.1-0.4-1.1-1.2c0-1.4,2-2.4,4.1-2.4c1.9,0,3.1,0.8,3.1,2.6v4.8
				c0,0.5,0.2,0.7,0.5,0.7c0.3,0,0.5-0.1,0.8-0.4l0.4,0.6c-0.5,0.6-1.3,1.1-2.1,1.1C65.2,46.4,64.6,45.9,64.3,45"/>
			<path class="st0" d="M71.1,39.3c0,1.9,4.9,0.7,4.9,4.1c0,1.8-1.8,3-3.9,3c-1.3,0-2.3-0.4-3.2-0.8l-0.2-2.4h0.8
				c0.5,1.7,1.4,2.2,2.7,2.2c0.9,0,1.7-0.5,1.7-1.3c0-2.1-4.9-0.8-4.9-4.1c0-1.6,1.5-2.9,3.6-2.9c1.1,0,1.9,0.3,2.7,0.7V40h-0.8
				c-0.3-1.2-0.9-1.9-2.1-1.9C71.7,38.1,71.1,38.5,71.1,39.3"/>
			<path class="st0" d="M80.3,46.4c-1.5,0-2.6-0.9-2.6-2.3v-5.8h-1.2v-1h1.2V35l2.3-0.7v3h2.7v1H80v5.4c0,0.9,0.5,1.3,1.2,1.3
				c0.6,0,1.1-0.3,1.6-0.9l0.6,0.7C82.6,45.8,81.6,46.4,80.3,46.4"/>
			<path class="st0" d="M97.3,46.2H87.1v-0.9c1.4,0,1.6-0.1,1.6-0.5v-9.6c0-0.4-0.2-0.5-1.6-0.5v-0.9h5.7v0.9
				c-1.4,0-1.6,0.1-1.6,0.5v10.1h2c2.1,0,2.8-0.5,3.6-3.5h0.9L97.3,46.2z"/>
			<path class="st0" d="M103.1,38.1c-1.3,0-2,1.3-2,3.6c0,2.3,0.7,3.6,2,3.6c1.3,0,2-1.3,2-3.6C105.1,39.5,104.4,38.1,103.1,38.1
				 M103.1,37.1c2.5,0,4.5,1.9,4.5,4.7c0,2.7-2,4.7-4.5,4.7c-2.5,0-4.5-1.9-4.5-4.7C98.6,39,100.6,37.1,103.1,37.1"/>
			<path class="st0" d="M112.4,46.2h-4.5v-0.8c1,0,1.1,0,1.1-0.4v-5.5c0-0.4-0.1-0.5-0.4-0.7l-0.7-0.4V38l3.1-0.9h0.4v1.7
				c0.6-0.8,1.7-1.7,3.1-1.7c1.8,0,2.6,1.4,2.6,3V45c0,0.3,0.1,0.4,1.1,0.4v0.8h-4.5v-0.8c1,0,1.1,0,1.1-0.4v-4.5
				c0-1.2-0.5-1.9-1.5-1.9c-0.7,0-1.4,0.4-1.9,0.9V45c0,0.3,0.1,0.4,1.1,0.4V46.2z"/>
			<path class="st0" d="M133.2,38.1c-1.3,0-2,1.3-2,3.6c0,2.3,0.7,3.6,2,3.6c1.3,0,2-1.3,2-3.6C135.3,39.5,134.5,38.1,133.2,38.1
				 M133.2,37.1c2.5,0,4.5,1.9,4.5,4.7c0,2.7-2,4.7-4.5,4.7c-2.5,0-4.5-1.9-4.5-4.7C128.7,39,130.8,37.1,133.2,37.1"/>
			<path class="st0" d="M142.6,46.2h-4.5v-0.8c1,0,1.1,0,1.1-0.4v-5.5c0-0.4-0.1-0.5-0.4-0.7l-0.7-0.4V38l3.1-0.9h0.4v1.7
				c0.6-0.8,1.7-1.7,3.1-1.7c1.8,0,2.6,1.4,2.6,3V45c0,0.3,0.1,0.4,1.1,0.4v0.8h-4.5v-0.8c1,0,1.1,0,1.1-0.4v-4.5
				c0-1.2-0.5-1.9-1.5-1.9c-0.7,0-1.4,0.4-1.9,0.9V45c0,0.3,0.1,0.4,1.1,0.4V46.2z"/>
			<path class="st0" d="M124.9,44c-0.4,0.5-1,0.9-1.8,0.9c-1.4,0-2.3-1.4-2.3-3.3c0-2.1,1-3.5,2.3-3.5c0.7,0,1.3,0.3,1.7,1V44z
				 M127.7,45c-0.3-0.2-0.4-0.3-0.4-0.7V31.9h-0.6c-0.7,0.6-1.6,0.9-2.5,0.9c-0.2,0-0.3,0-0.5,0v0.6l0.7,0.4
				c0.3,0.2,0.4,0.3,0.4,0.7v3.5c-0.5-0.4-1.2-0.8-2-0.8c-2.4,0-4.4,2-4.4,5c0,2.4,1.5,4.3,3.6,4.3c1.4,0,2.4-1,2.8-1.7v1.7h0.5
				l3.1-0.5v-0.5L127.7,45z"/>
		</g>
		<rect x="165.2" y="7.2" class="st0" width="0.7" height="45"/>
		<polygon class="st0" points="184.1,29.8 187.5,29.8 188.4,23 195.3,13.9 191.5,13.9 187,19.9 184,13.9 180.4,13.9 185,23 		"/>
		<g>
			<path class="st0" d="M248.3,12.6c-2.5,0-4.1,1.6-4.5,3.9l-0.4,2.7h-1.5l-0.4,2.8h1.5l-1,7.8h3.2l1-7.8h2.4l0.4-2.8h-2.4L247,17
				c0.1-1.1,0.8-1.6,1.6-1.6c0.4,0,0.7,0.1,1,0.3l0.4-2.7C249.6,12.7,249,12.6,248.3,12.6"/>
			<path class="st0" d="M206.2,25.5c0.1-0.2,0.3-0.5,0.4-0.7c0,0,0,0,0-0.1c0-1.3,0.7-2.4,1.8-2.8c0.6-1,1.2-1.9,1.9-2.8
				c-0.4-0.1-0.8-0.1-1.2-0.1c-3.1,0-5.7,2.6-5.7,6.1c0,1.3,0.4,2.5,1.2,3.4C205.1,27.4,205.6,26.5,206.2,25.5"/>
			<path class="st0" d="M197.5,21.6c1.3,0,2.1,0.9,2.1,1.8h-4.7C195.4,22.3,196.3,21.6,197.5,21.6 M191.8,24.8c0,3,2.3,5.3,5.3,5.3
				c1.7,0,3.5-0.6,4.7-2.3l-2.1-1.6c-0.6,0.9-1.4,1.3-2.4,1.3c-1.3,0-2.4-0.8-2.6-2.1h7.7c0.6-3.6-1.5-6.4-4.9-6.4
				C194.4,19,191.8,21.4,191.8,24.8"/>
			<path class="st0" d="M209.1,27.3c-0.5,0.9-1,1.8-1.5,2.7c0.2,0,0.3,0,0.5,0c1.5,0,2.6-0.7,3.3-1.5l-0.1,1.2h3.2l1.4-10.6h-1.4
				c-0.9,1.2-1.8,2.5-2.6,3.9c0.2,0.4,0.3,0.8,0.3,1.2C212,26,210.9,27.3,209.1,27.3"/>
		</g>
		<polygon class="st0" points="220.8,22 224.1,22 224.5,19.2 218,19.2 216.6,29.8 219.8,29.8 		"/>
		<g>
			<path class="st0" d="M201.1,44.8l-0.3,2.6h3.2l1.4-10.6h-1.1C202.9,39.6,201.9,42.3,201.1,44.8"/>
			<path class="st0" d="M186.3,34.1c1,0,1.8,0.6,2.1,1.9l3.1-1c-0.5-2.3-2.5-3.7-5-3.7c-3.2,0-5.4,2.2-5.4,5c0,4.9,6.4,3.6,6.4,6.6
				c0,1.2-0.9,2-2.3,2c-1.7,0-2.8-1.2-3.1-2.8L179,43c0.5,2.6,2.7,4.7,5.9,4.7c3.4,0,6-2.2,6-5.3c0-5.2-6.5-3.9-6.5-6.6
				C184.5,34.9,185.1,34.1,186.3,34.1"/>
			<path class="st0" d="M197.4,44.8c-1.5,0-2.6-1.1-2.6-2.6c0-1.5,1.1-2.9,2.9-2.9c0.5,0,1.1,0.1,1.5,0.4c0.3-0.8,0.7-1.7,1-2.6
				c-0.6-0.4-1.5-0.6-2.5-0.6c-3.4,0-6,2.6-6,5.8c0,3,2.1,5.1,4.9,5.3C196.9,46.7,197.2,45.8,197.4,44.8
				C197.4,44.8,197.4,44.8,197.4,44.8"/>
			<path class="st0" d="M209.2,41c0.4-1,1.3-1.8,2.6-1.8c1.3,0,2.1,0.9,2.1,1.8H209.2z M211.8,36.6c-3.2,0-5.8,2.4-5.8,5.8
				c0,3,2.3,5.3,5.3,5.3c1.7,0,3.5-0.6,4.7-2.3l-2.1-1.6c-0.6,0.9-1.4,1.3-2.4,1.3c-1.3,0-2.4-0.8-2.6-2.1h7.7
				C217.3,39.3,215.2,36.6,211.8,36.6"/>
			<path class="st0" d="M229.8,42.4c0,3.1,2.3,5.3,5.2,5.3c0.7,0,1.3-0.1,1.9-0.4l0.4-3.1c-0.7,0.4-1.3,0.6-2,0.6
				c-1.5,0-2.6-1.1-2.6-2.6c0-1.5,1.1-2.9,2.9-2.9c0.8,0,1.6,0.3,2.2,0.8l0.4-3c-0.6-0.4-1.5-0.6-2.5-0.6
				C232.3,36.6,229.8,39.2,229.8,42.4"/>
			<path class="st0" d="M241.7,41c0.4-1,1.3-1.8,2.6-1.8c1.3,0,2.1,0.9,2.1,1.8H241.7z M244.4,36.6c-3.2,0-5.8,2.4-5.8,5.8
				c0,3,2.3,5.3,5.3,5.3c1.7,0,3.5-0.6,4.7-2.3l-2.1-1.6c-0.6,0.9-1.4,1.3-2.4,1.3c-1.3,0-2.4-0.8-2.6-2.1h7.7
				C249.9,39.3,247.8,36.6,244.4,36.6"/>
			<path class="st0" d="M224.9,35.7h1.6c1.3-2.2,2.4-4.4,3.5-6.6c-0.4-0.4-0.7-0.8-0.9-1.3C227.8,30.3,226.4,33,224.9,35.7"/>
		</g>
		<polygon class="st0" points="225.8,36.8 225.4,36.8 224.2,36.8 223,36.8 218.9,36.8 217.9,44.4 217.7,46.5 217.5,47.4 218.7,47.4 
			220,47.4 220.8,47.4 220.9,46.2 221.2,44 221.6,40.9 221.8,39.6 222.5,39.6 224.1,39.6 225.3,39.6 225.5,39.6 224.4,47.4 
			227.6,47.4 229,36.8 227,36.8 		"/>
		<g>
			<path class="st0" d="M232.4,24.7c0-1.2,0.6-2.2,1.6-2.7c0.4-0.2,0.8-0.3,1.2-0.3c1.4,0,2.5,1.1,2.5,2.6c0,1.6-1.1,3-2.8,3
				c-1.1,0-2-0.7-2.3-1.7C232.5,25.4,232.4,25.1,232.4,24.7 M235.1,19c-0.4,0-0.8,0.1-1.1,0.2c-0.6,0.1-1.2,0.4-1.7,0.7
				c-0.6,0.4-1.2,0.9-1.6,1.4c-0.7,0.9-1.1,1.9-1.2,3c0,0.2,0,0.4,0,0.6c0,0.6,0.1,1.1,0.2,1.6c0.2,0.6,0.4,1.1,0.8,1.6
				c0.2,0.3,0.5,0.6,0.8,0.8c0.9,0.8,2.2,1.3,3.6,1.3c3.5,0,6-2.8,6-5.8c0-3-2.3-5.3-5.4-5.3C235.3,19,235.2,19,235.1,19"/>
			<path class="st0" d="M216.2,48.6H216c-1.9,2.4-3.9,4.5-5.8,6.2c-4.5,4.1-8.2,5.8-10.3,4.7c-2-1.2-2.3-5.3-0.9-11.2
				c0.6-2.6,1.5-5.3,2.7-8.2c0.4-1,0.9-2.1,1.3-3.2c0.2-0.4,0.4-0.9,0.6-1.3c0.2,0,0.4,0.1,0.6,0.1c0.2,0,0.3,0,0.5,0
				c1.3-0.2,2.3-1.4,2.3-2.8c0-0.5-0.1-0.9-0.3-1.3c-0.2-0.3-0.4-0.6-0.7-0.9c0.1-0.3,0.3-0.5,0.4-0.8c0.5-0.9,1-1.8,1.5-2.7
				c0.1-0.1,0.2-0.3,0.2-0.4c0.9-1.5,1.8-3,2.8-4.5c0.4-0.6,0.8-1.2,1.2-1.8c0-0.1,0.1-0.1,0.1-0.2c0.2-0.3,0.5-0.7,0.7-1
				c3.1-4.4,6.4-8.2,9.5-11.1c3.6-3.3,6.7-5,8.8-5c0.6,0,1.1,0.1,1.5,0.4c2,1.2,2.3,5.3,0.9,11.2c-0.3,1.2-0.6,2.4-1.1,3.7
				c0.5-0.2,1-0.3,1.6-0.4c0.3-1,0.6-2,0.8-3c0.8-3.2,1-5.9,0.8-8c-0.2-2.4-1-4-2.4-4.8c-1.4-0.8-3.2-0.7-5.3,0.2
				c-2,0.9-4.2,2.4-6.6,4.6c-3.4,3.2-7,7.4-10.4,12.4c-0.5,0.7-1,1.5-1.5,2.2c-0.9,1.4-1.8,2.8-2.7,4.3c0,0.1-0.1,0.1-0.1,0.2
				c-0.6,1-1.1,2-1.7,3c-0.1,0.3-0.3,0.5-0.4,0.8c-0.2,0-0.4-0.1-0.6-0.1c-0.2,0-0.4,0-0.6,0.1c-1.3,0.3-2.3,1.4-2.3,2.8
				c0,0.4,0.1,0.9,0.3,1.2c0.2,0.4,0.4,0.7,0.7,0.9c-1.6,3.4-2.9,6.6-3.8,9.7c-0.3,1-0.6,2-0.8,3c0,0.1-0.1,0.2-0.1,0.3
				c-0.8,3.2-1,5.9-0.8,8c0.2,2.4,1,4,2.4,4.8c0.6,0.4,1.4,0.6,2.2,0.6c0.9,0,2-0.3,3.2-0.8c2-0.9,4.2-2.4,6.6-4.6
				c2.2-2,4.4-4.5,6.6-7.2L216.2,48.6L216.2,48.6z"/>
		</g>
	</g>
</g>
</svg>
